<?xml version="1.0" encoding="utf-8"?>
<!-- Generator: Adobe Illustrator 22.0.1, SVG Export Plug-In . SVG Version: 6.00 Build 0)  -->
<svg version="1.1" id="Layer_1" xmlns="http://www.w3.org/2000/svg" xmlns:xlink="http://www.w3.org/1999/xlink" x="0px" y="0px"
	 viewBox="0 0 230 193" style="enable-background:new 0 0 230 193;" xml:space="preserve">
<style type="text/css">
	.st0{fill:#FFFFFF;}
	.st1{fill:#D6A022;}
	.st2{fill:#FFEE83;}
	.st3{fill:none;}
</style>
<g id="XMLID_555_">
	<g id="XMLID_622_">
		<g id="XMLID_641_">
			<path id="XMLID_665_" class="st0" d="M61.6,184.9c0.6,0.5,1.5,0.7,2.4,0.7c1.3,0,2.4-0.8,2.4-2.1c0-0.8-0.5-1.5-1.6-2.1
				c-1.5-0.8-2.3-1.7-2.3-2.9c0-2.1,1.7-3.3,3.8-3.3c1.1,0,2,0.3,2.3,0.6l-0.5,1.1c-0.3-0.2-1-0.6-2-0.6c-1.4,0-2.2,0.9-2.2,1.8
				c0,0.9,0.6,1.5,1.7,2.1c1.4,0.8,2.2,1.6,2.2,3c0,2-1.5,3.4-4,3.4c-1.2,0-2.3-0.3-2.8-0.8L61.6,184.9z"/>
			<path id="XMLID_651_" class="st0" d="M74.4,186.7c0-0.5,0.1-1.3,0.2-2.1l0,0c-0.9,1.7-2,2.3-3.1,2.3c-1.5,0-2.3-1.2-2.3-2.6
				c0-2.9,2.1-5.8,5.6-5.8c0.8,0,1.6,0.1,2.2,0.3l-0.8,4.3c-0.2,1.4-0.3,2.9-0.3,3.8h-1.5V186.7z M75.3,179.6
				c-0.2-0.1-0.5-0.1-0.9-0.1c-2.1,0-3.8,2.2-3.8,4.5c0,0.9,0.3,1.8,1.4,1.8c1.2,0,2.5-1.5,3-3.7L75.3,179.6z"/>
			<path id="XMLID_649_" class="st0" d="M79.6,178.6l0.7,4.6c0.1,0.9,0.2,1.5,0.2,2l0,0c0.2-0.5,0.5-0.9,0.9-1.8l2.4-4.7h1.5
				l-4.5,8.2h-1.4l-1.4-8.2L79.6,178.6L79.6,178.6z"/>
			<path id="XMLID_646_" class="st0" d="M93,181.8c0,2.5-1.7,5.1-4.5,5.1c-2.1,0-3.2-1.5-3.2-3.3c0-2.6,1.8-5.2,4.5-5.2
				C92,178.3,93,180,93,181.8z M86.8,183.5c0,1.4,0.7,2.3,2,2.3c1.6,0,2.9-2.1,2.9-4c0-0.9-0.5-2.3-1.8-2.3
				C88,179.5,86.8,181.7,86.8,183.5z"/>
			<path id="XMLID_644_" class="st0" d="M101.9,178.6l-1,5.8c-0.2,0.9-0.2,1.7-0.3,2.4h-1.3l0.2-1.5l0,0c-0.7,1-1.7,1.7-2.9,1.7
				c-1,0-2.2-0.5-2.2-2.3c0-0.3,0-0.8,0.1-1.4l0.9-4.6h1.4l-0.8,4.5c-0.1,0.5-0.1,0.8-0.1,1.2c0,0.8,0.3,1.4,1.3,1.4
				c1,0,2.3-1.1,2.6-3l0.8-4.1L101.9,178.6L101.9,178.6z"/>
			<path id="XMLID_642_" class="st0" d="M102.8,186.7l1-5.2c0.2-1,0.3-2.2,0.5-2.9h1.3c-0.1,0.6-0.1,1.1-0.2,1.7l0,0
				c0.6-1.1,1.4-2,2.5-2c0.1,0,0.2,0,0.5,0l-0.2,1.4c-0.1,0-0.2,0-0.3,0c-1.3,0-2.3,1.5-2.6,3.3l-0.7,3.6H102.8z"/>
		</g>
		<g id="XMLID_623_">
			<path id="XMLID_639_" class="st0" d="M115.1,186.7l-1.4-11.3h1.4l0.8,7.2c0.1,1.2,0.2,1.8,0.2,2.5l0,0c0.2-0.7,0.6-1.5,1.3-2.8
				l3.6-7h1.5l-6,11.3H115.1z"/>
			<path id="XMLID_636_" class="st0" d="M121,186.7l1.6-8.2h1.4l-1.5,8.2H121z M122.8,176.3c0-0.6,0.5-0.9,0.9-0.9
				c0.5,0,0.8,0.3,0.8,0.9s-0.3,0.9-0.9,0.9C123.2,177.2,122.8,176.8,122.8,176.3z"/>
			<path id="XMLID_633_" class="st0" d="M130.8,186.3c-0.6,0.3-1.6,0.7-2.6,0.7c-2.2,0-3.1-1.5-3.1-3.2c0-2.4,1.8-5.2,4.4-5.2
				c1.5,0,2.4,0.9,2.4,2.1c0,2.2-2.4,2.6-5.4,2.6c-0.1,0.3,0,1.1,0.1,1.5c0.3,0.7,0.9,1,1.8,1c0.9,0,1.7-0.2,2.2-0.6L130.8,186.3z
				 M129.1,179.5c-1.4,0-2.3,1.3-2.6,2.5c2.2,0,3.9-0.2,3.9-1.5C130.4,179.8,129.9,179.5,129.1,179.5z"/>
			<path id="XMLID_631_" class="st0" d="M136,176.6l-0.3,2h2l-0.2,1h-2l-0.7,3.9c-0.1,0.5-0.1,0.9-0.1,1.3c0,0.5,0.2,0.8,0.8,0.8
				c0.2,0,0.5,0,0.7-0.1l-0.1,1c-0.2,0.1-0.7,0.1-1,0.1c-1.3,0-1.7-0.7-1.7-1.6c0-0.5,0.1-0.9,0.2-1.5l0.8-4.1h-1.1l0.2-1h1.1
				l0.2-1.5L136,176.6z"/>
			<path id="XMLID_629_" class="st0" d="M137.8,186.7l1-5.8c0.2-0.9,0.3-1.7,0.3-2.4h1.3l-0.2,1.6l0,0c0.7-1.1,1.8-1.7,3-1.7
				c0.9,0,2.1,0.6,2.1,2.3c0,0.3-0.1,0.9-0.1,1.3l-0.9,4.7h-1.4l0.9-4.7c0-0.3,0.1-0.7,0.1-1c0-0.8-0.3-1.4-1.3-1.4
				c-1,0-2.4,1.2-2.8,3.2l-0.7,3.9H137.8z"/>
			<path id="XMLID_626_" class="st0" d="M152,186.7c0-0.5,0.1-1.3,0.2-2.1l0,0c-0.9,1.7-2,2.3-3.1,2.3c-1.5,0-2.3-1.2-2.3-2.6
				c0-2.9,2.1-5.8,5.6-5.8c0.8,0,1.6,0.1,2.2,0.3l-0.8,4.3c-0.2,1.4-0.3,2.9-0.3,3.8H152V186.7z M152.9,179.6
				c-0.2-0.1-0.5-0.1-0.9-0.1c-2.1,0-3.8,2.2-3.8,4.5c0,0.9,0.3,1.8,1.4,1.8c1.1,0,2.5-1.5,3-3.7L152.9,179.6z"/>
			<path id="XMLID_624_" class="st0" d="M155.5,186.7l1-5.8c0.1-0.9,0.2-1.7,0.3-2.4h1.3l-0.2,1.5l0,0c0.8-1.1,1.7-1.7,2.9-1.7
				c1.3,0,1.8,0.8,1.8,1.8c0.7-1.1,1.7-1.8,3-1.8c0.9,0,2,0.6,2,2.2c0,0.3,0,0.9-0.1,1.4l-0.9,4.8h-1.4l0.9-4.7
				c0.1-0.3,0.1-0.7,0.1-1c0-0.8-0.3-1.4-1.3-1.4c-1,0-2.2,1.1-2.5,3l-0.8,4.1h-1.4l0.9-4.7c0.1-0.3,0.1-0.7,0.1-1
				c0-0.7-0.2-1.4-1.3-1.4c-1,0-2.3,1.4-2.6,3.1l-0.7,4H155.5z"/>
		</g>
	</g>
	<g id="XMLID_556_">
		<g id="XMLID_608_">
			<path id="XMLID_620_" class="st1" d="M49.1,162.5c-0.6,0.2-1.7,0.5-2.6,0.5c-1.5,0-2.5-0.5-3.5-1.3c-1.2-1-1.7-3-1.6-5.2
				c0-4.6,2.8-6.6,5.4-6.6c0.9,0,1.7,0.2,2.1,0.3l-0.1,2.2c-0.3-0.2-1.2-0.2-1.8-0.2c-1.7,0-3,1.2-3,4.5c0,3.1,1.2,4.1,2.3,4.1
				c0.2,0,0.3,0,0.5,0v-3.1h-1.1v-2.1H49v6.8H49.1z"/>
			<path id="XMLID_617_" class="st1" d="M81.7,162.8c-0.1-0.3-0.2-0.6-0.2-1.6v-2.1c0-1.1-0.5-1.6-1.5-1.6h-0.8v5.3h-2.3v-12.9h3.6
				c2.4,0,3.4,0.9,3.4,3v1c0,1.3-0.5,2.2-1.5,2.6c1.2,0.5,1.6,1.4,1.6,2.8v2c0,0.6,0,1,0.2,1.6h-2.5V162.8z M79.1,151.8v3.9H80
				c0.9,0,1.4-0.3,1.4-1.4V153c0-0.9-0.3-1.4-1.2-1.4h-1.2V151.8z"/>
			<path id="XMLID_614_" class="st1" d="M188.6,153v1.7c0,2.1-1.2,3.2-3.5,3.2H184v4.8h-2.3v-12.9h3.4
				C187.4,149.9,188.6,151,188.6,153z M184,151.8v4.4h1.1c0.7,0,1.2-0.3,1.2-1.3v-2c0-0.9-0.5-1.3-1.2-1.3H184V151.8z"/>
			<path id="XMLID_611_" class="st1" d="M119,156.1c0,4.8-1.7,6.8-4.1,6.8c-2.9,0-4-3.1-4-6.6s1.4-6.4,4.3-6.4
				C118.1,149.8,119,153.3,119,156.1z M113.4,156.4c0,2.9,0.6,4.4,1.5,4.4c1,0,1.5-1.8,1.5-4.5c0-2.2-0.3-4.3-1.5-4.3
				C114,152,113.4,153.6,113.4,156.4z"/>
			<path id="XMLID_609_" class="st1" d="M148.8,149.8v8.4c0,1.8,0.6,2.4,1.3,2.4c0.7,0,1.3-0.5,1.3-2.4v-8.4h2.5v7.9
				c0,3.3-1.3,5.1-3.7,5.1c-2.6,0-3.8-1.8-3.8-5.1v-7.9H148.8z"/>
		</g>
		<g id="XMLID_582_">
			<g id="XMLID_602_">
				<path id="XMLID_607_" class="st2" d="M133.2,30.2c0,11-8.4,20-18.9,20c-10.4,0-18.9-9-18.9-20s8.4-20,18.9-20
					C124.8,10.2,133.2,19.2,133.2,30.2z"/>
				<path id="XMLID_606_" class="st2" d="M145.9,66.9c-10.5,3.4-21.6-1.8-24.8-11.7c-3.2-9.9,2.6-20.7,13.2-24
					c10.5-3.4,21.6,1.8,24.8,11.7C162.4,52.6,156.5,63.4,145.9,66.9z"/>
				<path id="XMLID_605_" class="st2" d="M115.1,90.3c-6.4-9-4.9-21.2,3.4-27.3c8.4-6.1,20.5-3.8,27,5.2c6.4,9,4.9,21.2-3.4,27.3
					C133.6,101.6,121.6,99.3,115.1,90.3z"/>
				<path id="XMLID_604_" class="st2" d="M83.1,68.3c6.6-9,18.6-11.3,27-5.2s10,18.3,3.4,27.3c-6.6,9-18.6,11.3-27,5.2
					C78.2,89.4,76.7,77.2,83.1,68.3z"/>
				<path id="XMLID_603_" class="st2" d="M92.9,30.7c-10.1-2.5-20.4,2.6-23.5,12.1c-3.2,9.9,2.6,20.7,13.2,24
					c10.5,3.4,21.6-1.8,24.8-11.7c0.5-1.5,0.7-2.9,0.8-4.4C99.9,48.1,93.7,40.3,92.9,30.7z"/>
			</g>
			<g id="XMLID_589_">
				<path id="XMLID_601_" class="st1" d="M114.3,75.3c9.9,0,17.9-8.1,17.9-17.8c0-9.9-8.1-17.9-17.9-17.9s-17.9,8-17.9,17.9
					C96.5,67.2,104.5,75.3,114.3,75.3z"/>
				<path id="XMLID_599_" class="st2" d="M123.2,49.4l-0.8-0.8l3.3-3.3c-6-5.3-15.2-5.4-20.6,0.1c-5.4,5.3-5.2,14.3,0.5,20l0.8,0.8
					l-3.3,3.3c6,5.3,15.2,5.4,20.6,0C129,64,128.8,55.2,123.2,49.4z"/>
				<g id="XMLID_590_">
					<path id="XMLID_598_" class="st1" d="M115,46.8v5.1c2.3-0.1,4.6-0.9,6.6-2.3C119.7,47.9,117.4,46.9,115,46.8z"/>
					<path id="XMLID_597_" class="st1" d="M113.7,46.8c-2.5,0.1-4.7,1.1-6.6,2.8c2,1.4,4.1,2.2,6.6,2.3V46.8z"/>
					<path id="XMLID_596_" class="st1" d="M113.7,53.1c-2.6-0.1-5.2-1.2-7.4-2.6c-0.9,1-1.6,2.3-2.1,3.6c2.8,2.2,6,3.5,9.4,3.6
						C113.7,57.6,113.7,53.1,113.7,53.1z"/>
					<path id="XMLID_595_" class="st1" d="M122.4,50.3c-2.2,1.6-4.7,2.5-7.4,2.6v4.5c3.4-0.1,6.7-1.5,9.4-3.6
						C124,52.6,123.3,51.4,122.4,50.3z"/>
					<path id="XMLID_594_" class="st1" d="M113.7,64.6c-3.1-0.1-6.1-0.9-8.9-2.3c1.7,3.2,4.9,5.5,8.9,5.8V64.6z"/>
					<path id="XMLID_593_" class="st1" d="M113.7,58.8c-3.6-0.1-6.9-1.4-9.8-3.6c-0.1,0.7-0.2,1.4-0.2,2.2c0,1,0.1,2.1,0.5,3.1
						c2.9,1.7,6.1,2.8,9.5,2.9C113.7,63.4,113.7,58.8,113.7,58.8z"/>
					<path id="XMLID_592_" class="st1" d="M115,64.6V68c3.8-0.2,7.1-2.5,8.9-5.8C121.1,63.7,118.1,64.5,115,64.6z"/>
					<path id="XMLID_591_" class="st1" d="M125,57.3c0-0.7-0.1-1.5-0.2-2.2c-2.9,2.2-6.2,3.5-9.8,3.6v4.5c3.4-0.1,6.7-1.2,9.5-2.9
						C124.8,59.4,125,58.4,125,57.3z"/>
				</g>
			</g>
			<path id="XMLID_588_" class="st1" d="M114.3,6.1c-11.8,0-21.5,10.2-21.5,22.8c0,6.9,2.9,13.1,7.6,17.4c0.3-0.5,0.7-0.9,1.2-1.3
				c-3.7-3.7-6-8.9-6-14.7c0-11,8.4-20,18.9-20c9.9,0,18.1,8.2,18.7,18.5c0.6-0.2,1.2-0.5,1.7-0.7c0.3-0.1,0.7-0.2,0.9-0.3
				C135.4,15.7,125.9,6.1,114.3,6.1z"/>
			<path id="XMLID_587_" class="st1" d="M163.2,41.5c-3.7-11.3-16.3-17.2-28.3-13.3c-6.6,2.2-11.6,6.9-14.1,12.5
				c0.6,0.2,1,0.5,1.6,0.7c2.3-4.6,6.6-8.5,12.1-10.2c10.5-3.5,21.6,1.8,24.8,11.7c3.1,9.4-2.2,19.7-11.8,23.6
				c0.3,0.5,0.8,0.9,1.2,1.4c0.2,0.2,0.3,0.6,0.6,0.8C160.4,64.5,166.8,52.5,163.2,41.5z"/>
			<path id="XMLID_586_" class="st1" d="M144.6,98.9c9.5-7,11.4-20.9,3.9-31c-4.1-5.6-10.1-9-16.3-9.5c0,0.6-0.1,1.1-0.1,1.7
				c5.2,0.8,10.1,3.7,13.5,8.3c6.4,9,4.9,21.2-3.4,27.3c-8.1,5.9-19.4,4-26.1-3.9c-0.3,0.5-0.7,1-1,1.5c-0.2,0.2-0.5,0.6-0.6,0.8
				C121.9,103.3,135.2,105.6,144.6,98.9z"/>
			<path id="XMLID_585_" class="st1" d="M84.2,98.9c9.5,7,23.3,4.4,30.8-5.9c4.1-5.6,5.4-12.4,4.1-18.5c-0.6,0.1-1.2,0.2-1.7,0.3
				c0.8,5.2-0.3,10.7-3.8,15.4c-6.4,9-18.6,11.3-27,5.2c-8-5.9-9.8-17.3-4.3-26c-0.6-0.1-1.2-0.3-1.7-0.5c-0.3-0.1-0.7-0.2-0.9-0.3
				C72.9,78.7,74.9,92.1,84.2,98.9z"/>
			<path id="XMLID_584_" class="st1" d="M65.6,41.5C61.9,52.7,68.7,65,80.6,69c6.6,2.2,13.5,1.3,18.9-1.8c-0.3-0.5-0.6-1-0.9-1.5
				c-4.6,2.4-10.3,3-15.8,1.2c-10.5-3.5-16.4-14.1-13.2-24c3.1-9.4,13.3-14.6,23.5-12.1c0-0.6-0.1-1.3-0.1-1.8c0-0.3,0-0.7,0-1
				C81.2,24.6,69.1,30.5,65.6,41.5z"/>
			<path id="XMLID_583_" class="st3" d="M165.7,57.3c0-28.4-23-51.3-51.3-51.3s-51.3,23-51.3,51.3s23,51.3,51.3,51.3
				S165.7,85.7,165.7,57.3z"/>
		</g>
		<g id="XMLID_557_">
			<g id="XMLID_558_">
				<path id="XMLID_580_" class="st0" d="M0,135h4.7c0,0.9,0.3,1.7,0.9,2.2c0.7,0.6,1.4,0.8,2.4,0.8c0.9,0,1.6-0.2,2.2-0.8
					c0.6-0.6,0.9-1.3,0.9-2.2c0-1.2-0.5-2.1-1.4-2.9c-0.6-0.5-1.5-0.9-2.9-1.3c-1.2-0.3-2-0.7-2.3-0.8c-0.7-0.3-1.4-0.8-2-1.4
					c-1.3-1.3-2-2.9-2-4.7c0-2,0.7-3.6,2.1-4.9c1.4-1.3,3.1-2,5.1-2s3.6,0.7,4.9,2.1c1.4,1.4,2.1,3,2.1,4.8h-4.4
					c0-0.7-0.2-1.3-0.8-1.8c-0.6-0.5-1.2-0.7-1.8-0.7c-0.8,0-1.4,0.2-1.7,0.7c-0.5,0.5-0.7,1.2-0.7,1.8c0,0.8,0.3,1.4,1,2
					c0.5,0.3,1.2,0.7,2.1,1l2.5,0.9c0.8,0.3,1.5,0.8,2.2,1.4c1.7,1.4,2.5,3.2,2.5,5.5c0,2.2-0.8,3.9-2.3,5.4
					c-1.5,1.5-3.4,2.2-5.5,2.2s-3.9-0.7-5.5-2.2C0.8,138.9,0,137.2,0,135z"/>
				<path id="XMLID_577_" class="st0" d="M33.5,117.5L33.5,117.5L33.5,117.5l-19.2,24.3h5.2l5.1-6.3h9v6.3H38v-24.3l0,0
					C38,117.5,33.5,117.5,33.5,117.5z M33.5,131.3h-5.6l5.6-7.1V131.3z"/>
				<rect id="XMLID_576_" x="40.3" y="117.5" class="st0" width="4.5" height="24.3"/>
				<path id="XMLID_575_" class="st0" d="M58.5,117c-6.2,0.1-12.1,5.6-12.3,12.3c0,0.1,0,0.2,0,0.5c0,6.8,5.8,12.5,13.1,12.5
					s12.9-6.1,12.9-13H57.8v4.1h8.7c-1.4,2.6-4.4,4.4-7.4,4.4c-4.1-0.1-8.3-3.2-8.4-8.5c-0.1-4.5,3.8-7.7,7.7-8.1
					c2.6-0.2,5.5,0.9,7,3.2h5.5C67.6,117.5,61,116.9,58.5,117z"/>
				<path id="XMLID_572_" class="st0" d="M86.5,117c-7,0-12.7,5.6-12.7,12.6c0,7,5.6,12.6,12.7,12.6s12.7-5.6,12.7-12.6
					C99.1,122.8,93.5,117,86.5,117z M86.5,138.1c-4.6,0-8.3-3.7-8.3-8.3c0-4.6,3.7-8.3,8.3-8.3s8.3,3.7,8.3,8.3
					C94.8,134.3,91.1,138.1,86.5,138.1z"/>
				<polygon id="XMLID_571_" class="st0" points="110.7,117.5 110.7,121.9 115.7,121.9 115.7,134.6 105.8,117.5 100.6,117.5 
					100.6,117.5 100.6,141.8 100.6,141.8 105.2,141.8 105.2,124.6 115.1,141.8 115.3,141.8 115.7,141.8 115.7,141.8 120.3,141.8 
					120.3,141.8 120.3,121.9 120.3,117.5 120.3,117.5 120.3,117.5 				"/>
				<polygon id="XMLID_570_" class="st0" points="122,117.5 122,117.5 122,141.8 126.6,141.8 126.6,121.9 131.6,121.9 131.6,117.5 
									"/>
				<path id="XMLID_567_" class="st0" d="M142.9,117c-7,0-12.7,5.6-12.7,12.6c0,7,5.6,12.6,12.7,12.6s12.6-5.6,12.6-12.6
					C155.7,122.8,150,117,142.9,117z M142.9,138.1c-4.6,0-8.3-3.7-8.3-8.3c0-4.6,3.7-8.3,8.3-8.3c4.6,0,8.3,3.7,8.3,8.3
					C151.3,134.3,147.5,138.1,142.9,138.1z"/>
				<path id="XMLID_565_" class="st0" d="M157.2,117.5h4.5v15.2c0,2.3,0.9,3.9,2.6,4.7c0.7,0.3,1.5,0.6,2.4,0.6
					c0.7,0,1.4-0.2,2.1-0.6c0.7-0.5,1.1-0.9,1.6-1.5c0.8-1.1,1.3-2.2,1.3-3.2v-15.2h4.5v15.2c0,2.9-0.7,5.2-2.2,6.7
					c-2,2.1-4.5,3.1-7.4,3.1c-2,0-3.8-0.6-5.6-1.6c-1.8-1.2-3-2.6-3.6-4.5c-0.2-0.9-0.3-2.1-0.3-3.6v-15.3H157.2z"/>
				<polygon id="XMLID_564_" class="st0" points="215.5,117.5 215.5,121.9 220.5,121.9 220.5,141.8 225.1,141.8 225.1,121.9 
					230,121.9 230,117.5 				"/>
				<path id="XMLID_563_" class="st0" d="M215.6,129.2c-0.7-0.6-1.5-1-2.2-1.4l-2.5-0.9c-0.9-0.3-1.7-0.7-2.1-1c-0.7-0.5-1-1.2-1-2
					c0-0.9,0.7-1.8,1.6-2.1c0.2-0.1,0.6-0.1,0.8-0.1h3.4v-4.3h-3.4c-2.8,0-5.2,1.6-6.3,3.9c-0.3,0.8-0.5,1.6-0.5,2.5
					c0,1.8,0.7,3.3,2,4.7c0.6,0.6,1.3,1,2,1.4c0.3,0.1,1,0.5,2.3,0.8c1.4,0.5,2.3,0.9,2.9,1.3c0.9,0.7,1.4,1.6,1.4,2.9
					c0,0.9-0.3,1.6-0.9,2.2c-0.6,0.6-1.4,0.8-2.2,0.8c-0.9,0-1.7-0.2-2.4-0.8c-0.7-0.6-0.9-1.3-0.9-2.2h-4.7c0,2.1,0.8,3.8,2.4,5.3
					c1.6,1.4,3.4,2.2,5.5,2.2c2.2,0,4-0.7,5.5-2.2c1.5-1.5,2.3-3.3,2.3-5.4C218.3,132.4,217.4,130.6,215.6,129.2z"/>
				<rect id="XMLID_562_" x="196.4" y="117.5" class="st0" width="4.5" height="24.3"/>
				<path id="XMLID_559_" class="st0" d="M188.4,132.8L188.4,132.8c1.8-0.3,3.2-1.1,4.4-2.4c1.3-1.4,2-3.1,2-5.3
					c0-2.4-0.9-4.5-2.9-6c-0.9-0.7-1.8-1.1-3-1.4c-0.8-0.2-1.8-0.2-3.3-0.2h-7v24.3h4.5v-9.3l6.8,9.3h5.1L188.4,132.8z M183,129.1
					V122h3.1c1.1,0,2.1,0.2,2.8,0.8c0.9,0.7,1.3,1.6,1.3,2.8c0,1-0.3,1.8-1,2.5c-0.7,0.7-2,1-3.7,1H183z"/>
			</g>
		</g>
	</g>
</g>
</svg>
